<svg width="321" height="258" viewBox="0 0 321 258" fill="none" xmlns="http://www.w3.org/2000/svg">
<path d="M40.1596 181.29V76.7101C40.1596 41.5239 65.16 13 96 13H61.9994C31.0715 13 6 41.5354 6 76.7363V181.264C6 216.464 31.0715 245 61.9994 245H96C65.16 245 40.1596 216.476 40.1596 181.29Z" fill="#6F6F6F"/>
<path d="M244.125 258H69.8615C27.4797 258 0.500051 236.748 0.500051 194.5L0.5 99C0.5 22.3663 6.125 0 83 0L244.125 0C286.514 0 321 34.3779 321 76.6337V181.366C321 223.622 286.514 258 244.125 258ZM69.875 25.5446C41.6157 25.5446 18.625 48.4631 18.625 76.6337V181.38C18.625 209.543 41.61 232.455 69.8615 232.455H244.125C272.384 232.455 295.375 209.537 295.375 181.366V76.6337C295.375 48.4631 272.384 25.5446 244.125 25.5446H69.875Z" fill="#515151"/>
<path d="M115.506 149.966L115.944 146.075H112.028H99.3375C82.7793 146.075 70.5 135.025 70.5 122.681V68.8938C70.5 56.55 82.7792 45.5 99.3375 45.5H183.913C199.445 45.5 211.302 55.2862 212.623 66.6854L213.197 71.6424L217.662 69.4143L256.261 50.1537C257.603 49.4838 259.349 49.4626 260.723 50.1095L260.723 50.1098C262.075 50.7461 262.5 51.7081 262.5 52.3438V139.231C262.5 139.867 262.075 140.829 260.724 141.465L260.722 141.465C259.349 142.112 257.603 142.091 256.261 141.421C256.26 141.421 256.26 141.421 256.26 141.421L217.662 122.161L213.197 119.933L212.623 124.89C211.916 130.99 209.407 136.248 205.369 139.971C201.355 143.674 195.596 146.075 187.968 146.075H177.769H174.269H166.5V149.575V153.075H170.772C170.781 165.32 170.695 177.539 167.539 187.038C165.846 192.13 163.348 196.164 159.721 198.946C156.117 201.71 151.059 203.5 143.753 203.5H79.6776C79.5877 203.434 79.4251 203.294 79.1916 203.021C78.6093 202.341 77.9686 201.257 77.3639 199.884C76.1162 197.051 75.475 194.06 75.475 193.019V174.4C75.475 168.496 76.2835 164.191 77.3954 161.5C77.9508 160.156 78.5129 159.383 78.9318 158.988C79.1309 158.801 79.2711 158.724 79.3392 158.694C79.3993 158.668 79.4249 158.668 79.4375 158.668H106.26C107.714 158.668 108.716 158.706 109.544 158.737C109.92 158.752 110.261 158.765 110.591 158.772C111.005 158.781 111.668 158.792 112.3 158.673C113.018 158.536 114.403 158.089 115.178 156.585C115.73 155.513 115.636 154.434 115.611 154.147C115.61 154.135 115.609 154.125 115.608 154.116C115.592 153.925 115.548 153.562 115.516 153.293C115.501 153.169 115.488 153.065 115.482 153.007C115.41 152.353 115.345 151.398 115.506 149.966ZM79.7608 203.554C79.7608 203.554 79.7586 203.553 79.7541 203.55C79.7586 203.552 79.7608 203.554 79.7608 203.554ZM214.826 90.635L208.87 93.2868L214.372 96.7857L241.536 114.063L246.914 117.484V111.11V81.7382V76.3487L241.991 78.5408L214.826 90.635ZM90.8986 186.813V190.313H94.3986H130.774C136.962 190.313 141.869 189.277 145.643 187.071C149.514 184.808 151.859 181.512 153.227 177.693C154.557 173.982 154.979 169.749 155.108 165.437C155.189 162.712 155.153 159.74 155.116 156.729C155.096 155.033 155.075 153.326 155.075 151.644V149.575V145.029L150.68 146.191L142.858 148.26L140.407 148.908L140.259 151.439C140.08 154.48 140.153 157.317 140.216 159.736C140.228 160.209 140.24 160.667 140.249 161.107C140.31 163.944 140.26 165.88 139.883 167.317C139.566 168.525 139.072 169.194 138.117 169.712C136.935 170.353 134.767 170.9 130.774 170.9H94.3986H90.8986V174.4V186.813ZM112.028 62.7825C106.699 62.7825 101.558 64.0826 97.6388 66.7479C93.634 69.4712 90.8986 73.6627 90.8986 79V113C90.8986 118.366 93.6643 122.47 97.7059 125.084C101.635 127.626 106.76 128.793 112.028 128.793H178.757C183.999 128.793 188.361 127.632 191.346 124.602C194.325 121.577 195.236 117.396 195.236 113V79C195.236 74.601 194.324 70.3625 191.407 67.2489C188.447 64.0911 184.084 62.7825 178.757 62.7825H112.028Z" fill="#D63447" stroke="#D63447" stroke-width="7"/>
<path opacity="0.3" d="M232.5 152L205 163.045V183.287H232.5V215C247.114 210.916 257.918 197.883 260 183.251H232.5V152V152Z" fill="#6F6F6F"/>
<path d="M232 145L197 159.182V180.455C197 200.132 211.933 218.533 232 223C252.067 218.533 267 200.132 267 180.455V159.182L232 145ZM232 215.661V184H204.778V163.791L232 152.765V183.965H259.222C257.161 198.572 246.467 211.584 232 215.661Z" fill="#515151"/>
</svg>
