<svg width="524" height="504" viewBox="0 0 524 504" fill="none" xmlns="http://www.w3.org/2000/svg">
<path d="M178.347 375H181.201V369.069V355.81V344H178.413C176.802 344 175.198 344.213 173.643 344.632L173.084 344.783C171.269 345.273 169.56 346.096 168.045 347.208C159.858 353.22 159.853 365.49 167.933 371.644C169.511 372.846 171.322 373.741 173.237 374.258L173.708 374.385C175.22 374.793 176.78 375 178.347 375Z" fill="#D9D9D9"/>
<path d="M240.277 463V463C220.12 463 203.779 446.659 203.779 426.501V168C203.779 147.565 220.344 131 240.779 131H318.753H373.111C391.227 131 406.679 144.118 409.62 161.994L411.245 171.869" stroke="#6F6F6F" stroke-width="15"/>
<path d="M60.6656 414L54.6506 409.588C45.1484 402.618 39.5348 391.538 39.5348 379.754V88C39.5348 67.5655 56.1003 51 76.5348 51H201.819H298.38C311.911 51 322.88 61.969 322.88 75.5V75.5V93.5" stroke="#6F6F6F" stroke-width="15"/>
<path d="M177.987 424.649L85.7122 426.424C71.008 426.707 60.7813 426.893 52.8271 426.381C45.0263 425.879 40.6102 424.753 37.2984 423.088C30.4096 419.626 24.7744 414.098 21.1803 407.277C19.4524 403.998 18.2413 399.604 17.5893 391.815C16.9246 383.872 16.914 373.643 16.914 358.937L16.9139 81.4C16.9139 69.792 16.9244 61.8809 17.4323 55.7651C17.9272 49.8049 18.8266 46.7236 19.9538 44.5537C22.5154 39.6223 26.5363 35.6015 31.4676 33.0398C33.6375 31.9127 36.7189 31.0133 42.6791 30.5183C48.7949 30.0104 56.706 30 68.314 30H310.313C313.531 30 314.529 30.0067 315.285 30.055C328.84 30.9212 339.642 41.7228 340.508 55.2782C340.556 56.0338 340.563 57.0314 340.563 60.25V86.0175C340.563 88.4931 338.556 90.5 336.08 90.5C333.605 90.5 331.598 88.4931 331.598 86.0175V76.25C331.598 54.0205 313.577 36 291.348 36H99.9488L99.4008 36C88.4768 35.9998 79.4815 35.9997 72.1622 36.6075C64.5651 37.2384 57.6168 38.5908 51.1172 41.9671C41.4371 46.9955 33.5443 54.8883 28.5159 64.5684C25.1396 71.068 23.7873 78.0163 23.1564 85.6133C22.5485 92.9327 22.5487 101.928 22.5488 112.852L22.5488 113.4V243.85V342.1L22.5488 342.648C22.5487 353.572 22.5485 362.567 23.1564 369.887C23.7873 377.484 25.1396 384.432 28.5159 390.932C33.5443 400.612 41.4371 408.505 51.1172 413.533C57.6168 416.909 64.5651 418.262 72.1622 418.892C79.4817 419.5 88.4771 419.5 99.4013 419.5H99.9488H177.938C179.359 419.5 180.512 420.653 180.512 422.075C180.512 423.477 179.389 424.622 177.987 424.649Z" stroke="#515151" stroke-width="26"/>
<path d="M324.128 468.5H259.731C245.317 468.5 235.149 468.492 227.211 467.832C219.399 467.184 214.692 465.959 211.022 464.053C203.808 460.305 197.925 454.423 194.178 447.208C192.272 443.539 191.047 438.832 190.398 431.019C189.739 423.082 189.731 412.914 189.731 398.5L189.731 175.4C189.731 163.834 189.739 155.801 190.258 149.558C190.766 143.441 191.709 139.987 193.052 137.401C195.851 132.013 200.244 127.62 205.632 124.821C208.218 123.478 211.671 122.535 217.789 122.027C219.017 121.925 220.315 121.843 221.696 121.776C220.705 122.189 219.728 122.643 218.764 123.144C209.541 127.935 202.02 135.456 197.229 144.679C194.069 150.762 192.76 157.339 192.142 164.779C191.543 171.993 191.543 180.9 191.543 191.904L191.543 192.358V307.889V391.419L191.543 391.874C191.543 402.878 191.543 411.784 192.142 418.999C192.76 426.439 194.069 433.015 197.229 439.099C202.02 448.322 209.541 455.843 218.764 460.634C224.848 463.794 231.424 465.103 238.864 465.72C246.078 466.32 254.984 466.32 265.988 466.319H266.443H324.128C324.73 466.319 325.218 466.808 325.218 467.41C325.218 468.012 324.73 468.5 324.128 468.5ZM416.658 193.102V162.776C416.658 144.501 405.841 128.754 390.261 121.585C394.425 121.69 396.723 121.92 398.665 122.416C409.122 125.084 417.288 133.25 419.956 143.707C420.79 146.974 420.872 151.249 420.872 163.722V193.102C420.872 194.021 420.276 194.833 419.401 195.111C418.042 195.541 416.658 194.527 416.658 193.102Z" stroke="#515151" stroke-width="21"/>
<path d="M308.413 426.792C317.053 426.792 324.056 420.103 324.056 411.853C324.056 403.602 317.053 396.914 308.413 396.914C299.774 396.914 292.771 403.602 292.771 411.853C292.771 420.103 299.774 426.792 308.413 426.792Z" fill="#FFF2F3"/>
<path d="M378.3 282.243C383.376 298.657 400.893 308.183 417.426 303.52M378.3 282.243C373.224 265.829 382.512 248.743 399.044 244.08M378.3 282.243L348.365 290.686M417.426 303.52C433.958 298.857 443.246 281.771 438.17 265.357M417.426 303.52L424.981 325.41M438.17 265.357C433.094 248.943 415.577 239.417 399.044 244.08M438.17 265.357L468.105 256.914M399.044 244.08L391.181 221.296M435.894 222.916L422.065 248.358M394.405 299.242L380.576 324.684M460.403 302.169L434.319 287.985M382.151 259.616L356.067 245.431M385.128 409.566C390.203 425.98 407.721 435.506 424.253 430.843M385.128 409.566C380.052 393.152 389.339 376.066 405.872 371.403M385.128 409.566L355.192 418.009M424.253 430.843C440.786 426.18 450.074 409.094 444.998 392.68M424.253 430.843L431.929 453.082M444.998 392.68C439.922 376.266 422.405 366.74 405.872 371.403M444.998 392.68L474.933 384.237M405.872 371.403L397.988 348.561M442.722 350.239L428.892 375.681M401.233 426.565L387.403 452.007M467.23 429.492L441.146 415.308M388.979 386.939L362.895 372.754M267.75 345.736C272.826 362.15 290.343 371.676 306.876 367.013M267.75 345.736C262.674 329.322 271.962 312.236 288.495 307.573M267.75 345.736L237.815 354.179M306.876 367.013C323.409 362.35 332.696 345.263 327.62 328.85M306.876 367.013L314.76 389.855M327.62 328.85C322.545 312.436 305.027 302.91 288.495 307.573M327.62 328.85L357.556 320.406M288.495 307.573L281.165 286.337M325.345 286.409L311.515 311.851M283.856 362.735L270.026 388.177M349.853 365.662L323.769 351.477M271.601 323.108L245.518 308.924" stroke="#D63447" stroke-width="17"/>
<path d="M318.598 150V148.5C318.598 148.224 318.374 148 318.098 148H305.055H292.012C291.736 148 291.512 148.224 291.512 148.5V150C291.512 150.276 291.736 150.5 292.012 150.5H302.839H318.098C318.374 150.5 318.598 150.276 318.598 150Z" stroke="#6F6F6F" stroke-width="3"/>
<path d="M200.899 73.5V71.5C200.899 71.2239 200.675 71 200.399 71H181.693H162.987C162.711 71 162.487 71.2239 162.487 71.5V73.5C162.487 73.7761 162.711 74 162.987 74H178.55H200.399C200.675 74 200.899 73.7761 200.899 73.5Z" stroke="#6F6F6F" stroke-width="3"/>
</svg>
