<svg width="722" height="700" viewBox="0 0 722 700" fill="none" xmlns="http://www.w3.org/2000/svg">
<path d="M333.592 53.4701C332.187 61.4718 332.457 69.7728 333.611 77.7852C335.225 88.9913 338.77 101.011 343.566 113.336C362.532 162.079 404.825 224.954 452.185 281.542C499.553 338.139 554.202 391.091 599.39 418.742C617.926 430.084 638.096 439.228 656.905 439.695C614.664 571.744 479.881 661.243 329.935 645.483C159.128 627.53 35.9647 480.071 53.0465 317.548C68.1466 173.88 187.997 64.5113 333.592 53.4701Z" stroke="#515151" stroke-width="40"/>
<path d="M363.999 617.916C523.609 617.916 652.999 495.913 652.999 345.416C652.999 194.918 523.609 72.9156 363.999 72.9156C204.389 72.9156 74.999 194.918 74.999 345.416C74.999 495.913 204.389 617.916 363.999 617.916Z" fill="black"/>
<path d="M457.007 115.706C448.041 138.599 445.464 163.267 449.516 187.35C396.206 181.857 342.228 187.328 291.358 203.415C284.962 198.302 277.365 194.716 269.211 192.951L268.479 192.793H268.096C266.271 186.372 264.491 179.396 263.426 174.982C262.569 171.429 261.976 167.982 261.097 162.868C260.64 160.212 260.106 157.106 259.417 153.302L257.74 144.041L249.353 148.311C239.81 153.17 230.626 158.629 221.865 164.653L217.514 167.644L219.194 172.649C220.172 175.56 220.59 177.43 220.782 178.725C220.969 179.981 220.974 180.865 220.974 182.097V182.853L221.135 183.591C222.562 190.12 224.356 196.507 226.186 202.723C219.774 207.266 214.524 213.198 210.922 220.094C207.173 227.273 205.363 235.209 205.639 243.191C175.648 262.218 148.76 285.256 125.839 311.588L124.535 313.086L124.212 315.046C122.431 325.846 121.488 336.753 121.39 347.682L121.39 347.714V347.745V358.144V376.793L133.661 362.75C160.554 331.973 191.342 304.361 225.351 280.521C230.998 284.897 237.559 288.1 244.603 289.922C251.918 291.814 259.561 292.168 267 290.983C293.495 331.049 328.92 365.259 370.833 391.273L370.842 391.279L370.851 391.285C377.71 395.513 384.685 399.463 391.635 403.237C391.592 408.266 392.363 413.267 393.915 418.064C361.276 441.53 324.124 458.958 284.455 469.394C279.574 462.309 272.856 456.53 264.953 452.6C255.347 447.822 244.423 445.988 233.695 447.321C222.965 448.655 212.889 453.099 204.892 460.104C198.363 465.825 193.48 473.029 190.713 481.035H183.152H167.541L177.925 492.691C196.958 514.057 220.045 531.901 245.999 545.333L248.159 546.451L250.547 545.988L256.199 544.894L256.566 544.823L256.923 544.713C265.807 541.984 273.8 537.058 280.042 530.395C285.231 524.858 289.05 518.289 291.213 511.166C338.984 499.206 383.694 478.295 422.634 449.679C432.641 454.073 443.904 455.331 454.76 453.231C465.598 451.134 475.457 445.798 482.855 437.994C509.574 444.166 536.986 447.331 564.51 447.42L564.521 447.42H564.533H575.446H579.717L581.671 443.622C586.472 434.287 590.578 424.648 593.957 414.775L597.206 405.279L587.172 405.51C556.76 406.21 526.363 403.831 496.51 398.418C495.834 393.163 494.271 388.052 491.888 383.277C512.692 357.002 529.421 328.088 541.569 297.397C560.511 305.015 580.918 308.953 601.557 308.955L457.007 115.706ZM457.007 115.706C418.524 102.082 377.14 96.9788 336.115 100.852C292.662 104.954 250.983 118.995 214.748 141.708C178.515 164.42 148.854 195.094 128.338 230.993C107.826 266.887 97.074 306.92 96.9988 347.569C96.9988 355.873 97.0155 363.307 98.264 370.653L98.303 370.883L98.3267 371.115C101.74 404.524 112.365 436.957 129.58 466.449C146.796 495.943 170.249 521.891 198.542 542.702C226.837 563.513 259.375 578.747 294.193 587.46C329.01 596.174 365.362 598.179 401.039 593.353C436.716 588.527 470.956 576.972 501.682 559.405C532.408 541.839 558.972 518.635 579.782 491.22C600.591 463.806 615.217 432.751 622.8 399.94C629.849 369.438 630.679 337.989 625.272 307.24C617.429 308.384 609.502 308.958 601.559 308.955L457.007 115.706Z" stroke="#6F6F6F" stroke-width="14"/>
<path d="M642.575 141.36C640.279 136.034 634.101 133.578 628.776 135.873C628.325 136.068 627.895 136.29 627.486 136.537C625.48 134.067 623.169 131.843 620.61 129.917C620.833 129.518 621.034 129.1 621.208 128.663C623.357 123.277 620.733 117.168 615.347 115.019C609.513 112.691 603.143 111.416 596.499 111.416C589.855 111.416 583.485 112.691 577.651 115.019C572.265 117.168 569.641 123.277 571.79 128.663C571.964 129.1 572.165 129.518 572.388 129.917C569.829 131.843 567.518 134.067 565.512 136.537C565.103 136.29 564.673 136.068 564.222 135.873C558.897 133.578 552.719 136.034 550.423 141.36C547.895 147.226 546.499 153.673 546.499 160.416C546.499 167.159 547.895 173.605 550.423 179.472C552.719 184.797 558.897 187.253 564.222 184.958C564.673 184.764 565.103 184.542 565.512 184.294C567.518 186.764 569.829 188.989 572.388 190.914C572.165 191.313 571.964 191.732 571.79 192.168C569.641 197.554 572.265 203.663 577.651 205.812C583.485 208.14 589.855 209.416 596.499 209.416C603.143 209.416 609.513 208.14 615.347 205.812C620.733 203.663 623.357 197.554 621.208 192.168C621.034 191.732 620.833 191.313 620.61 190.914C623.169 188.989 625.48 186.764 627.486 184.294C627.895 184.542 628.325 184.764 628.776 184.958C634.101 187.253 640.279 184.797 642.575 179.472C645.103 173.605 646.499 167.159 646.499 160.416C646.499 153.673 645.103 147.226 642.575 141.36Z" stroke="#D63447" stroke-width="21" stroke-linecap="round" stroke-dasharray="50 50"/>
<path d="M692.59 100.141C682.71 83.0218 668.575 68.7097 651.645 58.6803C648.017 65.9038 639.358 69.1777 631.796 66.0001C620.175 61.1176 607.418 58.4156 593.999 58.4156C580.58 58.4156 567.823 61.1176 556.202 66.0001C548.64 69.1777 539.981 65.9038 536.353 58.6804C519.423 68.7097 505.288 83.0218 495.408 100.141C502.676 103.697 506.037 112.332 502.927 119.929C498.146 131.612 495.499 144.431 495.499 157.916C495.499 171.4 498.146 184.22 502.927 195.902C506.037 203.499 502.676 212.134 495.408 215.69C505.288 232.809 519.423 247.122 536.353 257.151C539.981 249.927 548.64 246.654 556.202 249.831C567.823 254.714 580.58 257.416 593.999 257.416C607.418 257.416 620.175 254.714 631.796 249.831C639.358 246.654 648.017 249.927 651.645 257.151C668.575 247.122 682.71 232.809 692.59 215.69C685.322 212.134 681.961 203.499 685.071 195.902C689.852 184.22 692.499 171.4 692.499 157.916C692.499 144.431 689.852 131.612 685.071 119.929C681.961 112.332 685.322 103.697 692.59 100.141Z" stroke="#D63447" stroke-width="31" stroke-linecap="round" stroke-dasharray="60 60"/>
<path d="M309.605 254.699C310.898 250.144 311.471 245.442 311.315 240.747C360.841 226.04 413.441 222.67 464.679 230.941C474.131 248.188 487.176 263.439 503.007 275.805C492.437 304.589 477.285 331.735 458.05 356.322C449.663 353.923 440.741 353.581 432.136 355.361C423.664 357.113 415.796 360.861 409.268 366.257C408.088 365.574 406.918 364.904 405.751 364.235C402.044 362.111 398.361 360.001 394.444 357.521L394.426 357.509L394.408 357.498C357.353 334.354 326.223 303.925 303.159 268.395C306.04 264.196 308.222 259.578 309.605 254.699Z" stroke="#515151" stroke-width="14"/>
</svg>
