<svg width="452" height="486" viewBox="0 0 452 486" fill="none" xmlns="http://www.w3.org/2000/svg">
<path d="M445.728 343.87C437.666 321.876 411.331 314.604 393.172 326.644L368.845 306.494C375.42 285.194 360.059 261.764 336.177 261.073C311.582 260.361 294.607 284.249 301.462 306.465L277.117 326.629C258.404 314.222 231.398 322.457 224.107 345.26C217.373 366.325 231.571 386.971 251.479 390.545L260.898 424.262C244.079 438.709 244.487 466.498 264.187 479.849C283.703 493.076 309.493 483.554 317.078 463.062H353.176C361.036 484.536 388.42 493.524 407.702 478.673C426.274 464.37 425.349 437.182 408.467 423.532L418.191 390.655C439.064 387.336 453.604 365.36 445.728 343.87ZM351.714 443.734H318.565C314.862 425.575 297.021 413.265 278.72 416.065L271.017 388.489C289.722 380.981 297.956 359.022 289.744 341.294L312.063 322.809C325.083 334.108 345.082 334.247 358.225 322.824L380.563 341.326C372.373 359.005 380.596 380.587 398.701 388.251L390.519 415.912C372.406 413.655 355.35 426.102 351.714 443.734Z" fill="#D63447"/>
<path d="M227.446 110.84V110.296L191.29 74.5465C191.29 74.5465 182.816 75.4158 173.636 82.7505C167.28 87.8033 2.67246 212.656 1.75444 213.634C-3.18875 219.067 2.88431 217.329 12.8413 214.558C13.4062 214.558 93.6976 194.673 93.6976 194.673C94.0507 194.347 93.627 194.618 94.1213 194.347C93.8389 191.576 93.5564 180.112 93.4152 179.297C92.9915 176.472 94.9687 175.548 98.3583 174.461L163.75 156.097C164.173 155.663 226.246 111.709 227.446 110.84ZM340.504 176.091C349.896 184.839 355.121 183.317 362.254 181.144C364.513 180.492 443.746 155.282 445.44 154.576C451.09 152.24 444.24 145.503 440.356 141.863C438.873 140.504 295.521 8.4255 294.038 6.95856C287.188 0.330164 283.94 -0.050154 266.921 0.00417712C259.718 0.00417712 191.502 0.275832 184.652 0.330163C171.094 0.384494 161.419 0.16717 171.094 9.51212C176.531 14.6736 336.479 172.342 340.504 176.091ZM448.336 176.961C446.711 176.798 430.964 174.407 421.501 173.049C421.501 173.049 340.292 200.432 338.526 201.084C327.228 205.05 319.53 199.345 312.61 193.151L272.288 152.946C268.474 152.457 229.635 147.73 226.175 147.893C223.986 148.002 219.396 148.328 216.006 149.469C212.546 150.61 113.47 178.156 109.94 179.188C106.338 180.275 101.889 181.144 102.101 183.317C102.242 184.676 103.513 184.73 105.349 185.219C107.256 185.654 317.836 221.947 322.849 222.762C333.866 224.555 350.037 228.466 360.7 223.685C362.183 223.033 448.124 182.176 449.536 181.416C453.349 179.243 452.573 177.721 448.336 176.961Z" fill="#8C8C8C"/>
<path d="M271.61 290.981H212.415C195.294 290.981 181.415 304.86 181.415 321.981V436.471" stroke="#6F6F6F" stroke-width="20"/>
<path d="M271.61 285.822H204.265C188.249 285.822 175.265 298.805 175.265 314.822V436.471" stroke="#515151" stroke-width="24"/>
<path d="M56.3628 239.803C62.3706 243.332 66.4198 249.835 66.4922 257.291C66.493 257.378 66.4931 257.493 66.4931 257.874V394.772L66.4931 395.227C66.493 406.231 66.4929 415.137 67.0921 422.352C67.7099 429.791 69.0187 436.368 72.1787 442.451C75.1427 448.157 79.1511 453.211 83.961 457.371C82.999 457.013 82.1139 456.622 81.2814 456.195C74.1338 452.534 68.2718 446.782 64.4768 439.705C62.5446 436.101 61.2628 431.48 60.4851 423.812C59.6946 416.017 59.4978 406.027 59.2306 391.858L56.3628 239.803Z" stroke="#6F6F6F" stroke-width="21"/>
<mask id="path-6-inside-1_56_45" fill="white">
<path d="M28.6985 405.5C28.6985 433.974 28.6985 448.212 34.3278 459.049C39.0716 468.181 46.5176 475.627 55.6498 480.371C66.4867 486 80.724 486 109.198 486H238.812V458.656H126.922C104.142 458.656 92.7522 458.656 84.0826 454.153C76.7769 450.358 70.8201 444.401 67.0251 437.095C62.5216 428.425 62.5216 417.036 62.5216 394.256V296.14V242.886C62.5216 233.546 54.95 225.974 45.6101 225.974V225.974C36.2701 225.974 28.6985 233.546 28.6985 242.886V405.5Z"/>
</mask>
<path d="M238.812 486V546H298.812V486H238.812ZM238.812 458.656H298.812V398.656H238.812V458.656ZM67.0251 437.095L13.7803 464.753L67.0251 437.095ZM84.0826 454.153L111.741 400.908L84.0826 454.153ZM55.6498 480.371L27.9913 533.615L55.6498 480.371ZM34.3278 459.049L87.5726 431.39L34.3278 459.049ZM109.198 546H238.812V426H109.198V546ZM-31.3015 242.886V405.5H88.6985V242.886H-31.3015ZM122.522 394.256V296.14H2.52162V394.256H122.522ZM122.522 296.14V242.886H2.52162V296.14H122.522ZM298.812 486V458.656H178.812V486H298.812ZM238.812 398.656H126.922V518.656H238.812V398.656ZM88.6985 242.886C88.6985 266.683 69.4071 285.974 45.6101 285.974V165.974C3.133 165.974 -31.3015 200.409 -31.3015 242.886H88.6985ZM45.6101 285.974C21.813 285.974 2.52162 266.683 2.52162 242.886H122.522C122.522 200.409 88.0871 165.974 45.6101 165.974V285.974ZM2.52162 394.256C2.52162 404.639 2.4734 416.095 3.29038 425.932C4.16701 436.488 6.33827 450.427 13.7803 464.753L120.27 409.437C123.208 415.093 123.128 419.002 122.879 416.001C122.757 414.535 122.646 412.214 122.584 408.383C122.523 404.553 122.522 400.09 122.522 394.256H2.52162ZM126.922 398.656C121.088 398.656 116.625 398.654 112.795 398.593C108.963 398.532 106.643 398.421 105.176 398.299C102.175 398.05 106.084 397.969 111.741 400.908L56.4242 507.397C70.7507 514.839 84.6893 517.011 95.2452 517.887C105.083 518.704 116.539 518.656 126.922 518.656V398.656ZM13.7803 464.753C23.2678 483.018 38.1599 497.91 56.4242 507.397L111.741 400.908C115.394 402.805 118.372 405.784 120.27 409.437L13.7803 464.753ZM109.198 426C101.941 426 96.232 425.998 91.3007 425.92C86.3674 425.841 83.0894 425.694 80.7757 425.502C76.0798 425.112 78.735 424.75 83.3082 427.126L27.9913 533.615C43.4015 541.62 58.5938 544.073 70.8444 545.09C82.3768 546.048 95.9683 546 109.198 546V426ZM-31.3015 405.5C-31.3015 418.73 -31.3497 432.322 -30.392 443.854C-29.3747 456.105 -26.9219 471.297 -18.917 486.707L87.5726 431.39C89.9482 435.963 89.5863 438.619 89.1963 433.923C89.0042 431.609 88.8576 428.331 88.7788 423.398C88.7001 418.466 88.6985 412.758 88.6985 405.5H-31.3015ZM83.3082 427.126C85.1347 428.075 86.6239 429.564 87.5726 431.39L-18.917 486.707C-8.48068 506.798 7.90055 523.179 27.9913 533.615L83.3082 427.126Z" fill="#515151" mask="url(#path-6-inside-1_56_45)"/>
</svg>
