<svg width="618" height="531" viewBox="0 0 618 531" fill="none" xmlns="http://www.w3.org/2000/svg">
<path d="M544.275 355.851V75.0373C544.275 55.6867 529.137 40 510.464 40H138.544C119.871 40 104.733 55.6867 104.733 75.0373V355.851M544.275 355.851H104.733M544.275 355.851L587.431 445.294C589.778 450.159 591 455.523 591 460.963C591 480.313 575.862 496 557.189 496H91.8183C86.5693 496 81.3924 494.734 76.6976 492.301C59.9958 483.647 53.226 462.601 61.5769 445.294L104.733 355.851" stroke="#6F6F6F" stroke-width="40" stroke-linecap="round" stroke-linejoin="round"/>
<path d="M544.275 355.851V75.0373C544.275 55.6867 529.137 40 510.464 40H138.544C119.871 40 104.733 55.6867 104.733 75.0373V355.851M544.275 355.851H104.733M544.275 355.851L587.431 445.294C589.778 450.159 591 455.523 591 460.963C591 480.313 575.862 496 557.189 496H91.8183C86.5693 496 81.3924 494.734 76.6976 492.301C59.9958 483.647 53.226 462.601 61.5769 445.294L104.733 355.851" stroke="#6F6F6F" stroke-width="40" stroke-linecap="round" stroke-linejoin="round"/>
<path d="M111.056 25.2576H506.976C526.855 25.2576 542.969 41.7654 542.969 62.1288V357.64H75.0631V62.1288C75.0631 41.7654 91.1776 25.2576 111.056 25.2576V25.2576ZM61.3151 505.125H556.717C576.595 505.125 592.71 488.617 592.71 468.254C592.71 462.53 591.409 456.884 588.91 451.765L542.969 357.64H75.0631L29.1222 451.765C20.2324 469.978 27.439 492.126 45.2187 501.232C50.2164 503.792 55.7274 505.125 61.3151 505.125V505.125Z" stroke="#515151" stroke-width="50" stroke-linecap="round" stroke-linejoin="round"/>
<path d="M111.056 25.2576H506.976C526.855 25.2576 542.969 41.7654 542.969 62.1288V357.64H75.0631V62.1288C75.0631 41.7654 91.1776 25.2576 111.056 25.2576V25.2576ZM61.3151 505.125H556.717C576.595 505.125 592.71 488.617 592.71 468.254C592.71 462.53 591.409 456.884 588.91 451.765L542.969 357.64H75.0631L29.1222 451.765C20.2324 469.978 27.439 492.126 45.2187 501.232C50.2164 503.792 55.7274 505.125 61.3151 505.125V505.125Z" stroke="#515151" stroke-width="50" stroke-linecap="round" stroke-linejoin="round"/>
<path d="M392.256 229.432L380.578 222.465C382.867 215.356 384.114 207.787 384.114 199.932C384.114 192.078 382.867 184.509 380.578 177.399L392.256 170.433C400.558 165.48 403.25 154.774 398.268 146.519C393.286 138.264 382.517 135.589 374.218 140.541L362.325 147.636C352.792 138.136 340.681 131.206 327.143 127.947V112.784C327.143 103.158 319.295 95.3542 309.613 95.3542C299.931 95.3542 292.083 103.158 292.083 112.784V127.947C278.237 131.281 265.893 138.467 256.263 148.301L243.255 140.541C234.955 135.589 224.186 138.264 219.205 146.519C214.223 154.774 216.915 165.48 225.217 170.433L238.367 178.278C236.256 185.131 235.112 192.401 235.112 199.932C235.112 207.464 236.256 214.734 238.367 221.587L225.217 229.432C216.915 234.385 214.223 245.091 219.204 253.345C222.492 258.792 228.297 261.809 234.252 261.809C237.322 261.809 240.431 261.008 243.255 259.323L256.263 251.563C265.893 261.397 278.237 268.583 292.083 271.917V287.081C292.083 296.707 299.931 304.51 309.613 304.51C319.295 304.51 327.143 296.707 327.143 287.081V271.918C340.681 268.658 352.792 261.728 362.325 252.228L374.218 259.324C377.042 261.009 380.151 261.81 383.221 261.81C389.175 261.81 394.982 258.792 398.269 253.346C403.25 245.091 400.558 234.385 392.256 229.432V229.432ZM309.613 239.149C287.865 239.149 270.171 221.556 270.171 199.932C270.171 178.308 287.865 160.716 309.613 160.716C331.361 160.716 349.055 178.308 349.055 199.932C349.055 221.556 331.361 239.149 309.613 239.149Z" fill="#D63447"/>
<path d="M350.663 470.035H270.242C269.908 470.035 269.668 469.714 269.762 469.394L275.995 448.231C276.057 448.019 276.253 447.873 276.474 447.873H350.663C350.939 447.873 351.163 448.097 351.163 448.373V469.535C351.163 469.811 350.939 470.035 350.663 470.035Z" fill="#6F6F6F" stroke="#6F6F6F" stroke-width="5"/>
</svg>
